# xmcd
#
# Track frame offsets: 
#        150
#        10951
#        23317
#        33176
#        44641
#        55743
#        67877
#        77264
#        87556
#        102039
#
# Disc length: 1552 seconds
#
# Revision: 0
# Processed by: cddbd v1.5.2PL0 Copyright (c) Steve Scherf et al.
# Submitted via: ExactAudioCopy v1.3
#
DISCID=67060e0a
DTITLE=Tammy Wynette - Another Lonely Song
DYEAR=1974
DGENRE=Country
TTITLE0=Another Lonely Song
TTITLE1=Crying Steel Guitar
TTITLE2=What My Thoughts Do All the Time
TTITLE3=Stayin' Home Woman
TTITLE4=Satin Sheets
TTITLE5=Homecoming
TTITLE6=Help Me Make it Through the Night
TTITLE7=Keep Me In Mind
TTITLE8=With Child
TTITLE9=One Final Stand
EXTD=
EXTT0=
EXTT1=
EXTT2=
EXTT3=
EXTT4=
EXTT5=
EXTT6=
EXTT7=
EXTT8=
EXTT9=
PLAYORDER=
